<svg xmlns="http://www.w3.org/2000/svg" viewBox="0 0 64 64">
  <defs>
    <linearGradient id="bg" x1="0%" y1="0%" x2="100%" y2="100%">
      <stop offset="0%" style="stop-color:#6366f1"/>
      <stop offset="100%" style="stop-color:#8b5cf6"/>
    </linearGradient>
    <linearGradient id="shine" x1="0%" y1="0%" x2="100%" y2="100%">
      <stop offset="0%" style="stop-color:#ffffff;stop-opacity:0.3"/>
      <stop offset="100%" style="stop-color:#ffffff;stop-opacity:0"/>
    </linearGradient>
  </defs>
  
  <!-- Background rounded square -->
  <rect x="4" y="4" width="56" height="56" rx="12" fill="url(#bg)"/>
  
  <!-- Shine effect -->
  <rect x="4" y="4" width="56" height="28" rx="12" fill="url(#shine)"/>
  
  <!-- Camera/Photo icon -->
  <g fill="white">
    <!-- Main frame -->
    <rect x="14" y="18" width="36" height="28" rx="4" fill="none" stroke="white" stroke-width="3"/>
    
    <!-- Mountain/landscape inside -->
    <path d="M14 40 L24 30 L32 38 L40 28 L50 40 L50 42 C50 44.2 48.2 46 46 46 L18 46 C15.8 46 14 44.2 14 42 Z" fill="white" opacity="0.9"/>
    
    <!-- Sun -->
    <circle cx="40" cy="26" r="5" fill="white"/>
    
    <!-- AI sparkle -->
    <g transform="translate(44, 14)">
      <path d="M4 0 L5 3 L8 4 L5 5 L4 8 L3 5 L0 4 L3 3 Z" fill="#fbbf24"/>
    </g>
  </g>
</svg>
